<svg xmlns="http://www.w3.org/2000/svg" viewBox="0 0 100 100">
  <defs>
    <linearGradient id="bg" x1="0%" y1="0%" x2="100%" y2="100%">
      <stop offset="0%" style="stop-color:#6C5CE7"/>
      <stop offset="100%" style="stop-color:#5A4CB0"/>
    </linearGradient>
  </defs>
  <rect width="100" height="100" rx="22" fill="url(#bg)"/>
  <!-- Streak flame icon -->
  <path d="M50 18 C50 18 62 36 62 50 C62 56 58 62 54 64 C58 58 56 50 50 44 C44 50 42 58 46 64 C42 62 38 56 38 50 C38 36 50 18 50 18Z" fill="#A29BFE" opacity="0.9"/>
  <path d="M50 34 C50 34 58 44 58 52 C58 58 54 62 50 64 C54 60 53 54 50 48 C47 54 46 60 50 64 C46 62 42 58 42 52 C42 44 50 34 50 34Z" fill="#EDE9FC"/>
  <!-- Streak lines -->
  <line x1="50" y1="68" x2="50" y2="82" stroke="#A29BFE" stroke-width="3" stroke-linecap="round"/>
  <line x1="42" y1="72" x2="42" y2="80" stroke="#A29BFE" stroke-width="2" stroke-linecap="round" opacity="0.6"/>
  <line x1="58" y1="72" x2="58" y2="80" stroke="#A29BFE" stroke-width="2" stroke-linecap="round" opacity="0.6"/>
</svg>
